<svg id="Layer_1" data-name="Layer 1" xmlns="http://www.w3.org/2000/svg" viewBox="0 0 31 31"><defs><style>.cls-1{fill:#ffe381;}.cls-2{fill:#ffc703;}.cls-3{fill:#344b57;}</style></defs><title>favicon</title><path class="cls-1" d="M16.43.93a15.5,15.5,0,1,0,4,30.47l-1.17-1.5-.09-.11a13.72,13.72,0,0,1-2.76.28A13.65,13.65,0,0,1,9.65,4.59l.12-.07.14-.08.19-.1q.5-.27,1-.49a13.69,13.69,0,0,1,10.19-.17l.15.06.16.06.28.12.16.07.13.06A13.65,13.65,0,0,1,28.4,23l.06.08,1.17,1.49A15.5,15.5,0,0,0,16.43.93Z" transform="translate(-0.93 -0.93)"/><path class="cls-2" d="M22.18,4.05,22.05,4l-.16-.07-.28-.12-.16-.06-.15-.06a13.75,13.75,0,0,0-11.22.66l-.19.1-.14.08-.12.07a13.71,13.71,0,0,0,9.63,25.32l-.09-.11-1.26-1.61a11.9,11.9,0,0,1-1.5.09A11.77,11.77,0,1,1,27.16,21.4L28.4,23l.06.08a13.72,13.72,0,0,0-6.28-19Z" transform="translate(-0.93 -0.93)"/><path class="cls-3" d="M20.94,28l5.34-4.34.87,1.07-5.34,4.34Zm2.8,1.27,3.2-2.6.87,1.07-3.2,2.6ZM14.07,14.11a6.87,6.87,0,0,0-1,9.67,6.32,6.32,0,0,0,5.15,2.57c.94.06,1.45.11,1.85.6l1.07-.87A3.49,3.49,0,0,0,18.3,25a5,5,0,0,1-4.16-2.06A5.5,5.5,0,1,1,22.67,16a5,5,0,0,1,1.16,4.5,3.49,3.49,0,0,0,.51,3l1.07-.87c-.4-.49-.35-1-.21-1.94a6.31,6.31,0,0,0-1.45-5.56,6.88,6.88,0,0,0-9.67-1Z" transform="translate(-0.93 -0.93)"/></svg>