<svg id="Layer_1" data-name="Layer 1" xmlns="http://www.w3.org/2000/svg" viewBox="0 0 389.32 389.32"><defs><style>.cls-1{fill:#ffe381;}.cls-2{fill:#ffc703;}.cls-3{fill:#344b57;}</style></defs><title>logo-co-innovation</title><path class="cls-1" d="M199.66,5.34C92.15,5.34,5,92.49,5,200S92.15,394.66,199.66,394.66a194.78,194.78,0,0,0,50.46-6.61L235.4,369.27l-1.08-1.38a172.34,172.34,0,0,1-34.66,3.49,171.43,171.43,0,0,1-85.2-320.12c.47-.28,1-.55,1.44-.82l1.74-1L120,48.21q6.31-3.34,12.94-6.12a172,172,0,0,1,128-2.16l1.84.71c.65.25,1.3.51,2,.79,1.17.48,2.34,1,3.5,1.48.67.29,1.32.58,2,.88l1.68.77A171.38,171.38,0,0,1,350,282.36l.8,1,14.63,18.68A193.67,193.67,0,0,0,394.32,200C394.32,92.49,307.17,5.34,199.66,5.34Z" transform="translate(-5 -5.34)"/><path class="cls-2" d="M271.93,44.55l-1.68-.77c-.66-.31-1.32-.59-2-.88-1.16-.51-2.33-1-3.5-1.48l-2-.79L261,39.92a172.67,172.67,0,0,0-141,8.28l-2.38,1.27-1.74,1c-.48.26-1,.54-1.44.82a172.19,172.19,0,0,0,120.95,318l-1.08-1.38-15.8-20.16a149.45,149.45,0,0,1-18.82,1.18,147.83,147.83,0,1,1,134.71-86.44L350,282.36l.8,1A172.26,172.26,0,0,0,271.93,44.55Z" transform="translate(-5 -5.34)"/><path class="cls-3" d="M256.31,345.46l67-54.46,10.89,13.4-67,54.46Zm35.18,15.91,40.2-32.67,10.89,13.4-40.2,32.67ZM170,170.83a86.34,86.34,0,0,0-12.55,121.46,79.35,79.35,0,0,0,64.68,32.21c11.76.79,18.27,1.4,23.28,7.56l13.4-10.89c-10-12.33-23.07-13.19-35.69-13.94a62.17,62.17,0,0,1-52.26-25.84,69.07,69.07,0,1,1,107.2-87.13,62.17,62.17,0,0,1,14.54,56.5c-1.72,12.53-3.72,25.27,6.41,37.73l13.4-10.89c-5-6.16-4.35-12.6-2.7-24.4a79.26,79.26,0,0,0-18.26-69.83A86.34,86.34,0,0,0,170,170.83Z" transform="translate(-5 -5.34)"/></svg>